<svg xmlns="http://www.w3.org/2000/svg" viewBox="0 0 512 512">
  <rect width="512" height="512" rx="0" fill="#2b55c8"/>
  <!-- speech bubble -->
  <path d="M136 150h240a40 40 0 0 1 40 40v120a40 40 0 0 1-40 40H250l-70 56v-56h-44a40 40 0 0 1-40-40V190a40 40 0 0 1 40-40z" fill="#ffffff"/>
  <!-- waveform (echo/shadow) -->
  <g fill="#2b55c8">
    <rect x="166" y="222" width="22" height="56" rx="11"/>
    <rect x="206" y="198" width="22" height="104" rx="11"/>
    <rect x="246" y="182" width="22" height="136" rx="11"/>
    <rect x="286" y="206" width="22" height="88" rx="11" opacity=".55"/>
    <rect x="326" y="226" width="22" height="48" rx="11" opacity=".55"/>
  </g>
</svg>
